<mxfile host="65bd71144e">
    <diagram id="06Ml8JHVcYLigscrqXHJ" name="Page-1">
        <mxGraphModel dx="710" dy="562" grid="1" gridSize="10" guides="1" tooltips="1" connect="1" arrows="1" fold="1" page="1" pageScale="1" pageWidth="827" pageHeight="1169" math="0" shadow="0">
            <root>
                <mxCell id="0"/>
                <mxCell id="1" parent="0"/>
                <mxCell id="2" value="Company which makes products" style="whiteSpace=wrap;html=1;align=center;" vertex="1" parent="1">
                    <mxGeometry x="440" y="380" width="100" height="40" as="geometry"/>
                </mxCell>
                <mxCell id="3" value="Products" style="whiteSpace=wrap;html=1;align=center;" vertex="1" parent="1">
                    <mxGeometry x="440" y="250" width="100" height="40" as="geometry"/>
                </mxCell>
                <mxCell id="4" value="Famazon" style="whiteSpace=wrap;html=1;align=center;" vertex="1" parent="1">
                    <mxGeometry x="230" y="250" width="100" height="40" as="geometry"/>
                </mxCell>
                <mxCell id="5" value="Customer" style="whiteSpace=wrap;html=1;align=center;" vertex="1" parent="1">
                    <mxGeometry x="330" y="130" width="100" height="40" as="geometry"/>
                </mxCell>
                <mxCell id="6" value="Delivery" style="whiteSpace=wrap;html=1;align=center;" vertex="1" parent="1">
                    <mxGeometry x="230" y="380" width="100" height="40" as="geometry"/>
                </mxCell>
                <mxCell id="7" value="Invoices" style="whiteSpace=wrap;html=1;align=center;" vertex="1" parent="1">
                    <mxGeometry x="90" y="380" width="100" height="40" as="geometry"/>
                </mxCell>
            </root>
        </mxGraphModel>
    </diagram>
</mxfile>